<?xml version="1.0" encoding="UTF-8" standalone="no"?>
<svg
   id="Capa_1"
   data-name="Capa 1"
   viewBox="0 0 2048 1024"
   version="1.1"
   sodipodi:docname="Logo_black_Text.svg"
   inkscape:version="1.3.2 (091e20e, 2023-11-25)"
   inkscape:export-filename="Logo_Black.png"
   inkscape:export-xdpi="96"
   inkscape:export-ydpi="96"
   width="2048"
   height="1024"
   xmlns:inkscape="http://www.inkscape.org/namespaces/inkscape"
   xmlns:sodipodi="http://sodipodi.sourceforge.net/DTD/sodipodi-0.dtd"
   xmlns="http://www.w3.org/2000/svg"
   xmlns:svg="http://www.w3.org/2000/svg">
  <sodipodi:namedview
     id="namedview10"
     pagecolor="#ffffff"
     bordercolor="#000000"
     borderopacity="0.25"
     inkscape:showpageshadow="2"
     inkscape:pageopacity="0.0"
     inkscape:pagecheckerboard="0"
     inkscape:deskcolor="#d1d1d1"
     inkscape:zoom="0.23046875"
     inkscape:cx="852.61017"
     inkscape:cy="514.16949"
     inkscape:window-width="1488"
     inkscape:window-height="748"
     inkscape:window-x="1"
     inkscape:window-y="39"
     inkscape:window-maximized="0"
     inkscape:current-layer="Capa_1"
     inkscape:export-bgcolor="#00000000" />
  <defs
     id="defs9">
    <rect
       x="464.27118"
       y="229.96609"
       width="1496.9491"
       height="733.28815"
       id="rect3" />
    <rect
       x="498.98306"
       y="542.37286"
       width="78.101692"
       height="117.15254"
       id="rect2" />
    <style
       id="style1">
      .cls-1 {
        fill: url(#Degradado_sin_nombre_21);
      }

      .cls-2 {
        fill: url(#Degradado_sin_nombre_11);
      }
    </style>
    <linearGradient
       id="Degradado_sin_nombre_11"
       data-name="Degradado sin nombre 11"
       x1="478.97"
       y1="304.16"
       x2="478.97"
       y2="553.78998"
       gradientUnits="userSpaceOnUse">
      <stop
         offset="0"
         stop-color="#1c86a0"
         id="stop1" />
      <stop
         offset=".49"
         stop-color="#195579"
         id="stop2" />
      <stop
         offset="1"
         stop-color="#132349"
         id="stop3" />
    </linearGradient>
    <linearGradient
       id="Degradado_sin_nombre_21"
       data-name="Degradado sin nombre 21"
       x1="822.97998"
       y1="557.57001"
       x2="600.97998"
       y2="592.37"
       gradientUnits="userSpaceOnUse">
      <stop
         offset="0"
         stop-color="#1c86a0"
         id="stop4"
         style="stop-color:#7c3aed;stop-opacity:1;" />
      <stop
         offset=".09"
         stop-color="#1a708f"
         id="stop5" />
      <stop
         offset=".18"
         stop-color="#196182"
         id="stop6" />
      <stop
         offset=".29"
         stop-color="#19577b"
         id="stop7" />
      <stop
         offset=".45"
         stop-color="#195579"
         id="stop8" />
      <stop
         offset="1"
         stop-color="#1e2f58"
         id="stop9" />
    </linearGradient>
  </defs>
  <path
     class="cls-2"
     d="m 481.57559,493.03406 c -12.8,-24.08 -30.65,-47.82 -46.76,-70.82 l -48.92,-70.38 -34.63,-49.84 c 0,0 -0.07,-0.08 -0.12,-0.12 -0.21,-0.15 -0.51,-0.1 -0.65,0.12 l -34.27,50.39 -46.81,69.64 -1.51,2.34 -27.22,40.56 -28.6,42.73 c -9.7,14.27 -22.44,33.29 -38.23,57.06 -0.67,1.01 -1.12,1.92 -1.33,2.72 42.26,0.72 79.35,-22.68 113.14,-44.58 l 18.75,-12.47 51.74,-35.18 9.93,-5.67 c 24.07,-12.93 53.43,-10.07 76.4,3.68 9.98,5.97 17.89,15.81 24.86,25.83 0.19,0.27 0.53,0.37 0.83,0.24 l 13.11,-5.46 c 0.39,-0.16 0.48,-0.42 0.29,-0.79 z m -263.05,18.68 c 0,0 -0.02,-0.01 -0.03,-0.01 0.05,0 0.1,0.01 0.15,-0.01 -0.04,0.02 -0.08,0.03 -0.12,0.03 z m 59.57,2.48 c 0,0 0.01,0 0.02,0 0,0.01 0,0.02 0,0.03 0,-0.02 -0.01,-0.03 -0.02,-0.04 z m 38.99,-160.25 c 0,0 0.04,-0.04 0.07,-0.05 0.01,0 0.02,0 0.04,0.01 -0.04,-0.01 -0.09,0 -0.11,0.03 z m 0.76,0.44 c 0,0 0,0 0,0 0.01,0 0.02,0 0.03,0 -0.01,0 -0.03,0 -0.04,0 z m 111.47,74.81 c 0,0 0.01,-0.02 0.01,-0.03 0,0.07 0,0.15 0.04,0.22 -0.04,-0.06 -0.06,-0.12 -0.06,-0.19 z m 1.18,2.04 c 0,0 0,-0.05 0,-0.08 0,0 0,0.01 0,0.02 0,0.02 0,0.04 0,0.06 z"
     id="path9"
     style="fill:#000000;fill-opacity:1;stroke:#ffffff;stroke-opacity:1" />
  <path
     class="cls-1"
     d="m 546.84559,460.34406 c -0.03,-0.39 -0.19,-0.44 -0.46,-0.15 -25.53,27.49 -53.99,49.67 -89.33,63.17 -26.07,9.73 -52.55,14.05 -79.44,12.96 -11.64,-0.47 -30.25,-2.79 -46.84,-1.35 -20.75,1.67 -39.09,7.19 -57.61,16.46 -10.74,5.37 -21.46,10.77 -32.17,16.22 l -7.42,3.07 c -16.49,6.73 -33.66,10.91 -51.51,12.54 -0.31,0.03 -0.39,0.18 -0.23,0.45 53.61,94.21 166.47,132.94 263.48,79.68 37.69,-22.45 65.67,-53.71 83.96,-93.77 l 3.93,-9.46 c 4.47,-11.4 7.86,-23.23 10.15,-35.5 4.24,-21.21 5.4,-42.65 3.49,-64.32 z m -303.31,107.13 c 0,0 -0.02,0.04 -0.03,0.06 0.02,-0.05 0.04,-0.09 0.05,-0.15 0,0.03 -0.01,0.06 -0.02,0.09 z m 281.41,3.21 c 0,0 -0.03,-0.02 -0.04,-0.02 0.05,0.02 0.11,0.03 0.16,0.04 -0.04,0 -0.08,0 -0.12,-0.02 z m 1.29,-42.4 c 0,0 0,-0.08 0,-0.12 0,0.02 0.01,0.03 0.01,0.05 0,0.02 0,0.04 0,0.07 z m 3.56,38.86 c 0,-0.06 -0.02,-0.13 -0.07,-0.18 0.04,0.04 0.06,0.09 0.08,0.14 0,0.01 0,0.02 0,0.03 z m 0.75,-2.02 c 0,0 -0.01,0.01 -0.02,0.02 0,-0.01 0.01,-0.02 0.02,-0.03 0,0 0,0 0,0.02 z"
     id="path10"
     style="fill:#000000;fill-opacity:1" />
  <text
     xml:space="preserve"
     id="text2"
     style="font-style:normal;font-variant:normal;font-weight:bold;font-stretch:normal;font-size:112px;font-family:Inter;-inkscape-font-specification:'Inter Bold';white-space:pre;shape-inside:url(#rect2);display:inline;fill:#000000;stroke:#4f46e5;stroke-opacity:1" />
  <path
     d="m 681.2769,474.30143 q 0,14.72658 -6.94011,29.11461 -6.77084,14.38804 -19.12763,24.37503 -13.54168,10.83334 -31.65367,16.92709 -17.94273,6.09376 -43.33338,6.09376 -27.25263,0 -49.08858,-5.07813 -21.66669,-5.07813 -44.17973,-15.06512 v -41.9792 h 2.36979 q 19.12762,15.91147 44.17973,24.54429 25.05211,8.63282 47.05734,8.63282 31.14586,0 48.4115,-11.6797 17.43491,-11.6797 17.43491,-31.14586 0,-16.75783 -8.29428,-24.71357 -8.125,-7.95573 -24.88283,-12.35678 -12.69533,-3.38542 -27.59117,-5.58594 -14.72658,-2.20052 -31.31514,-5.58594 -33.51565,-7.10938 -49.76567,-24.20575 -16.08074,-17.26565 -16.08074,-44.85682 0,-31.65367 26.74481,-51.79692 26.74482,-20.31252 67.87767,-20.31252 26.57555,0 48.75005,5.07813 22.1745,5.07813 39.27087,12.52605 v 39.60941 h -2.3698 q -14.38803,-12.18751 -37.9167,-20.14324 -23.3594,-8.12501 -47.90369,-8.12501 -26.91409,0 -43.33337,11.17188 -16.25002,11.17189 -16.25002,28.77607 0,15.74221 8.12501,24.71357 8.12501,8.97136 28.6068,13.71095 10.83334,2.36979 30.80732,5.75521 19.97397,3.38542 33.8542,6.94011 28.09898,7.44793 42.31774,22.51304 14.21877,15.06512 14.21877,42.14848 z m 149.46628,70.24746 q -8.97136,2.3698 -19.63544,3.89324 -10.4948,1.52344 -18.78908,1.52344 -28.94534,0 -44.01045,-15.57294 -15.06512,-15.57293 -15.06512,-49.93494 V 383.91072 h -21.49742 v -26.74481 h 21.49742 v -54.33599 h 31.82294 v 54.33599 h 65.67715 v 26.74481 h -65.67715 v 86.15894 q 0,14.89584 0.67709,23.35939 0.67708,8.29428 4.73959,15.57294 3.72396,6.77084 10.15626,9.98698 6.60156,3.04688 19.97397,3.04688 7.78647,0 16.25002,-2.20052 8.46355,-2.3698 12.18751,-3.89323 h 1.69271 z M 987.14955,391.86646 h -1.69271 q -7.10938,-1.69271 -13.88022,-2.3698 -6.60157,-0.84635 -15.7422,-0.84635 -14.72658,0 -28.43753,6.60157 -13.71095,6.4323 -26.40627,16.75783 V 546.2416 H 869.16767 V 357.16591 h 31.82295 v 27.92971 q 18.95835,-15.23439 33.34638,-21.49742 14.55731,-6.43229 29.62243,-6.43229 8.29428,0 12.01824,0.50781 3.72396,0.33854 11.17188,1.52344 z M 1157.944,546.2416 h -31.6537 v -20.14324 q -4.2317,2.8776 -11.5104,8.125 -7.1094,5.07813 -13.8802,8.12501 -7.9557,3.89323 -18.2813,6.4323 -10.3255,2.70833 -24.2057,2.70833 -25.5599,0 -43.3334,-16.92709 -17.77346,-16.9271 -17.77346,-43.16411 0,-21.49741 9.14066,-34.70055 9.3099,-13.37241 26.4063,-20.9896 17.2656,-7.6172 41.4713,-10.32553 24.2058,-2.70834 51.9662,-4.06251 v -4.90886 q 0,-10.83334 -3.8932,-17.94272 -3.724,-7.10938 -10.8333,-11.17189 -6.7709,-3.89323 -16.2501,-5.2474 -9.4791,-1.35417 -19.8047,-1.35417 -12.526,0 -27.9297,3.38542 -15.4036,3.21615 -31.8229,9.47918 h -1.6927 v -32.33076 q 9.3099,-2.53907 26.9141,-5.58594 17.6041,-3.04688 34.7005,-3.04688 19.974,0 34.7006,3.38542 14.8958,3.21615 25.7292,11.17188 10.664,7.78647 16.25,20.14325 5.5859,12.35678 5.5859,30.63805 z m -31.6537,-46.54952 V 447.0488 q -14.5573,0.84636 -34.362,2.53907 -19.6354,1.69271 -31.1458,4.90886 -13.711,3.89323 -22.1745,12.18751 -8.4636,8.125 -8.4636,22.51304 0,16.25001 9.8177,24.54429 9.8178,8.12501 29.961,8.12501 16.7578,0 30.638,-6.4323 13.8803,-6.60157 25.7292,-15.7422 z m 368.8415,46.54952 h -31.8229 V 438.58525 q 0,-12.18751 -1.1849,-23.52867 -1.0157,-11.34115 -4.5703,-18.11199 -3.8933,-7.27865 -11.1719,-11.00262 -7.2787,-3.72396 -20.9896,-3.72396 -13.3724,0 -26.7448,6.77084 -13.3725,6.60157 -26.7449,16.9271 0.5078,3.89323 0.8464,9.14063 0.3385,5.07813 0.3385,10.15626 V 546.2416 h -31.8229 V 438.58525 q 0,-12.52605 -1.1849,-23.69794 -1.0156,-11.34115 -4.5703,-18.11199 -3.8933,-7.27866 -11.1719,-10.83335 -7.2787,-3.72396 -20.9896,-3.72396 -13.0339,0 -26.237,6.4323 -13.0339,6.4323 -26.0678,16.41929 v 141.172 h -31.8229 V 357.16591 h 31.8229 v 20.9896 q 14.8959,-12.35678 29.6225,-19.29689 14.8958,-6.94012 31.6536,-6.94012 19.2969,0 32.6693,8.12501 13.5417,8.12501 20.1433,22.51304 19.2969,-16.25001 35.2084,-23.35939 15.9114,-7.27866 34.0234,-7.27866 31.1459,0 45.8725,18.95836 14.8958,18.78908 14.8958,52.64327 z m 208.2033,0 h -31.6536 v -20.14324 q -4.2318,2.8776 -11.5105,8.125 -7.1094,5.07813 -13.8802,8.12501 -7.9557,3.89323 -18.2813,6.4323 -10.3255,2.70833 -24.2057,2.70833 -25.5599,0 -43.3334,-16.92709 -17.7734,-16.9271 -17.7734,-43.16411 0,-21.49741 9.1406,-34.70055 9.3099,-13.37241 26.4063,-20.9896 17.2656,-7.6172 41.4714,-10.32553 24.2057,-2.70834 51.9662,-4.06251 v -4.90886 q 0,-10.83334 -3.8933,-17.94272 -3.7239,-7.10938 -10.8333,-11.17189 -6.7709,-3.89323 -16.25,-5.2474 -9.4792,-1.35417 -19.8047,-1.35417 -12.5261,0 -27.9298,3.38542 -15.4036,3.21615 -31.8229,9.47918 h -1.6927 v -32.33076 q 9.3099,-2.53907 26.9141,-5.58594 17.6042,-3.04688 34.7005,-3.04688 19.974,0 34.7006,3.38542 14.8958,3.21615 25.7292,11.17188 10.664,7.78647 16.25,20.14325 5.5859,12.35678 5.5859,30.63805 z m -31.6536,-46.54952 V 447.0488 q -14.5574,0.84636 -34.3621,2.53907 -19.6354,1.69271 -31.1458,4.90886 -13.711,3.89323 -22.1745,12.18751 -8.4636,8.125 -8.4636,22.51304 0,16.25001 9.8177,24.54429 9.8178,8.12501 29.961,8.12501 16.7578,0 30.6381,-6.4323 13.8802,-6.60157 25.7292,-15.7422 z"
     id="text3"
     style="font-size:346.667px;font-family:Inter;-inkscape-font-specification:Inter;white-space:pre;fill:#000000;stroke:#ffffff;stroke-opacity:1"
     transform="translate(169.22034,69.423729)"
     aria-label="Strama" />
</svg>
